<?xml version="1.0" ?><svg viewBox="0 0 23.46 19.02" xmlns="http://www.w3.org/2000/svg"><title/><g data-name="Camada 2" id="Camada_2"><g data-name="Camada 1" id="Camada_1-2"><path d="M22.17,7.53V2a2,2,0,0,0-2-2H2A2,2,0,0,0,0,2V17.05a2,2,0,0,0,2,2H20.2a2,2,0,0,0,2-2V13.51a1.41,1.41,0,0,0,1.29-1.4V8.94A1.41,1.41,0,0,0,22.17,7.53ZM2,1H20.2a1,1,0,0,1,1,1v.32a1.94,1.94,0,0,0-1-.27H2a1.94,1.94,0,0,0-1,.27V2A1,1,0,0,1,2,1ZM20.2,18H2a1,1,0,0,1-1-1V4A1,1,0,0,1,2,3H20.2a1,1,0,0,1,1,1V7.52H16.46a3,3,0,0,0,0,6h4.71v3.53A1,1,0,0,1,20.2,18Zm2.26-5.92a.42.42,0,0,1-.42.42H16.46a2,2,0,0,1,0-4H22a.42.42,0,0,1,.42.42Z"/><circle cx="16.5" cy="10.42" r="0.82"/></g></g></svg>